<?xml version="1.0" encoding="UTF-8" standalone="no"?>
<!-- Created with Inkscape (http://www.inkscape.org/) -->

<svg
   xmlns:dc="http://purl.org/dc/elements/1.1/"
   xmlns:cc="http://creativecommons.org/ns#"
   xmlns:rdf="http://www.w3.org/1999/02/22-rdf-syntax-ns#"
   xmlns:svg="http://www.w3.org/2000/svg"
   xmlns="http://www.w3.org/2000/svg"
   xmlns:sodipodi="http://sodipodi.sourceforge.net/DTD/sodipodi-0.dtd"
   xmlns:inkscape="http://www.inkscape.org/namespaces/inkscape"
   width="210mm"
   height="297mm"
   viewBox="0 0 210 297"
   version="1.1"
   id="svg8"
   inkscape:version="0.92.4 (33fec40, 2019-01-16)"
   sodipodi:docname="profile.svg">
  <defs
     id="defs2" />
  <sodipodi:namedview
     id="base"
     pagecolor="#ffffff"
     bordercolor="#666666"
     borderopacity="1.0"
     inkscape:pageopacity="0.0"
     inkscape:pageshadow="2"
     inkscape:zoom="2.2199802"
     inkscape:cx="148.64998"
     inkscape:cy="1079.9596"
     inkscape:document-units="mm"
     inkscape:current-layer="layer1"
     showgrid="false"
     inkscape:pagecheckerboard="true"
     inkscape:window-width="1920"
     inkscape:window-height="1024"
     inkscape:window-x="1366"
     inkscape:window-y="26"
     inkscape:window-maximized="1" />
  <metadata
     id="metadata5">
    <rdf:RDF>
      <cc:Work
         rdf:about="">
        <dc:format>image/svg+xml</dc:format>
        <dc:type
           rdf:resource="http://purl.org/dc/dcmitype/StillImage" />
        <dc:title></dc:title>
      </cc:Work>
    </rdf:RDF>
  </metadata>
  <g
     inkscape:label="Camada 1"
     inkscape:groupmode="layer"
     id="layer1">
    <path
       inkscape:connector-curvature="0"
       d="m 32.127976,18.665326 c 0,-7.306205 -5.922962,-13.229167 -13.229167,-13.229167 -7.306204,0 -13.2291656,5.922962 -13.2291656,13.229167 0,3.826139 1.626394,7.271014 4.223015,9.686395 0,0 0,0 0,0 0,0 2.64e-4,2.65e-4 2.64e-4,2.65e-4 0.1402286,0.130439 0.2833686,0.257175 0.4291536,0.381529 0.01058,0.009 0.02117,0.01852 0.03175,0.02752 0.138113,0.116945 0.279136,0.230716 0.422011,0.341841 0.01984,0.01535 0.03942,0.03122 0.05927,0.04657 0.136261,0.10504 0.274902,0.206904 0.415396,0.306652 0.02857,0.02011 0.05662,0.04075 0.0852,0.06059 0.134673,0.09393 0.271198,0.185208 0.40931,0.274108 0.03651,0.02355 0.07303,0.04736 0.110067,0.07064 0.132821,0.08387 0.267494,0.1651 0.40349,0.24421 0.04471,0.02593 0.08943,0.05186 0.134408,0.07726 0.130704,0.07408 0.262731,0.145786 0.396346,0.215636 0.05292,0.02752 0.106098,0.05477 0.159279,0.08149 0.128323,0.06482 0.25744,0.127793 0.388144,0.188383 0.06138,0.02858 0.123031,0.05609 0.184943,0.08361 0.125413,0.05583 0.251355,0.110596 0.378884,0.162454 0.06959,0.02831 0.1397,0.05556 0.209814,0.08282 0.122502,0.04762 0.245269,0.09446 0.369359,0.138377 0.07805,0.02778 0.156898,0.05345 0.235743,0.07964 0.118798,0.03969 0.237596,0.07885 0.357982,0.115093 0.08705,0.02619 0.174889,0.05001 0.262731,0.07461 0.114565,0.03201 0.229129,0.06429 0.345017,0.0934 0.09604,0.02408 0.193145,0.04498 0.289983,0.06694 0.110067,0.02487 0.219604,0.05054 0.330729,0.07276 0.106098,0.02117 0.213254,0.03863 0.320411,0.05715 0.104245,0.01799 0.207697,0.03757 0.312737,0.05318 0.118533,0.01773 0.238654,0.03096 0.358246,0.04551 0.09551,0.01164 0.190235,0.02514 0.286279,0.03466 0.1397,0.01376 0.280723,0.02249 0.421481,0.03201 0.07805,0.0053 0.155046,0.01296 0.233363,0.01693 0.219869,0.01111 0.441325,0.01693 0.664368,0.01693 0.223044,0 0.4445,-0.0058 0.664634,-0.01693 0.07832,-0.004 0.155575,-0.01164 0.233362,-0.01693 0.140759,-0.0095 0.281782,-0.01826 0.421482,-0.03201 0.09604,-0.0095 0.190764,-0.02302 0.286279,-0.03466 0.119591,-0.01455 0.239712,-0.02778 0.358246,-0.04551 0.105039,-0.01561 0.208491,-0.03519 0.312737,-0.05318 0.106892,-0.01852 0.214313,-0.03598 0.32041,-0.05715 0.111125,-0.02222 0.220663,-0.04789 0.33073,-0.07276 0.09684,-0.02196 0.193939,-0.04286 0.289983,-0.06694 0.115887,-0.02884 0.230187,-0.06138 0.345017,-0.0934 0.08758,-0.02461 0.175683,-0.04842 0.262731,-0.07461 0.120385,-0.03625 0.239183,-0.07567 0.357981,-0.115358 0.07858,-0.02619 0.157427,-0.05186 0.235479,-0.07964 0.124354,-0.04418 0.247121,-0.09102 0.369888,-0.138641 0.06985,-0.02725 0.139964,-0.05424 0.209285,-0.08255 0.127529,-0.05212 0.253736,-0.106892 0.379148,-0.162719 0.06165,-0.02752 0.123561,-0.05503 0.184679,-0.08361 0.130704,-0.06059 0.259821,-0.123561 0.388144,-0.188384 0.05318,-0.02672 0.106098,-0.05398 0.159015,-0.08149 0.133614,-0.06985 0.265906,-0.141552 0.39661,-0.215636 0.04498,-0.0254 0.08943,-0.05106 0.134144,-0.07699 0.135996,-0.07911 0.270668,-0.160338 0.403754,-0.244211 0.03678,-0.02328 0.07329,-0.04683 0.109802,-0.07038 0.138377,-0.08916 0.275167,-0.180446 0.40984,-0.274373 0.02831,-0.01984 0.05636,-0.04022 0.08467,-0.06006 0.140759,-0.09975 0.279665,-0.201877 0.41619,-0.306917 0.01984,-0.01535 0.03916,-0.03096 0.05874,-0.0463 0.14314,-0.11139 0.284163,-0.225161 0.422275,-0.342371 0.01058,-0.009 0.0209,-0.01826 0.03149,-0.02725 0.145785,-0.124354 0.289189,-0.251354 0.429683,-0.381794 0,0 0,0 0,0 v 0 c 2.596356,-2.415381 4.22275,-5.860256 4.22275,-9.686395 z M 18.898809,6.759076 c 6.565107,0 11.90625,5.341143 11.90625,11.90625 0,2.617787 -0.851164,5.039518 -2.288645,7.00696 -0.318294,-2.634986 -3.247232,-4.803775 -7.14375,-5.460206 1.954741,-0.9271 3.306762,-2.91809 3.306762,-5.225257 0,-3.192462 -2.588154,-5.780616 -5.780617,-5.780616 -3.192462,0 -5.780616,2.588154 -5.780616,5.780616 0,2.307167 1.352021,4.298157 3.306762,5.225257 -3.896518,0.656431 -6.8254556,2.82522 -7.1437496,5.460206 -1.437481,-1.967442 -2.288645,-4.389173 -2.288645,-7.00696 0,-6.565107 5.3411426,-11.90625 11.9062486,-11.90625 z"
       id="path3713"
       style="fill:#ffffff;stroke-width:0.26458332"
       inkscape:export-xdpi="96"
       inkscape:export-ydpi="96" />
  </g>
</svg>
